<svg xmlns="http://www.w3.org/2000/svg" width="18.568" height="20" viewBox="0 0 18.568 20"><defs><style>.a{fill:#98cdf4;}</style></defs><path class="a" d="M46.452,1019.992a1.336,1.336,0,0,1-1.337-1.338v-17.321a1.339,1.339,0,0,1,1.337-1.34h1.69a1.339,1.339,0,0,1,1.337,1.34v17.321a1.336,1.336,0,0,1-1.337,1.338Zm7.1,0a1.336,1.336,0,0,1-1.337-1.338v-10.73a1.339,1.339,0,0,1,1.337-1.34h1.691a1.339,1.339,0,0,1,1.337,1.34v10.73a1.336,1.336,0,0,1-1.337,1.338Zm-14.2,0a1.336,1.336,0,0,1-1.337-1.338v-4.139a1.339,1.339,0,0,1,1.337-1.34h1.69a1.339,1.339,0,0,1,1.337,1.34v4.139a1.336,1.336,0,0,1-1.337,1.338Z" transform="translate(-38.014 -999.992)"/></svg>