<svg xmlns="http://www.w3.org/2000/svg" viewBox="0 0 159.12 140.11"><g id="Layer_2" data-name="Layer 2"><g id="Layer_1-2" data-name="Layer 1"><path d="M111.52,26.65A13.33,13.33,0,1,0,98.2,13.33,13.32,13.32,0,0,0,111.52,26.65Z"/><path d="M127.51,76.91l-.81,0c-2-.51-3.06-1.79-3.48-4.22-.9-5.23-1.8-10.48-3.18-15.61-.91-3.45-.37-5.71,2.67-7.8,1.25-.87,2.52-3.6,2-4.66a9.25,9.25,0,0,0-4.78-4c-1.25-.5-3.17.32-4.69.86-3.58,1.26-7.06,2.8-10.64,4-4.18,1.43-5.93.23-6.26-4.17A10.09,10.09,0,0,1,98.72,38c1.62-6.08.43-10.27-3.81-13.13-5.24-3.52-9.81-3.3-15,.86-9.87,8-19.65,16-29.55,23.93-3.51,2.81-6.93,5.52-7.49,10.46-.11,1-1.15,1.93-1.9,2.76-3.52,3.83-3.44,3.72.34,7.47,1,1,1.89,3.14,1.44,4.08a7.13,7.13,0,0,1-3.1,2.76A31.63,31.63,0,1,0,46.87,80a5.89,5.89,0,0,1,.65-3.88c3.19-7,6-6.78,13.62-4.35a117.26,117.26,0,0,1,13,5.26c4,1.79,4.15,3.14,1.87,6.68-2.94,4.56-5.82,9.19-8.5,13.91-2.16,3.79-.5,9,3.26,11.25,3.32,2,8.09.64,10.56-3.2,2.6-4,5.06-8.2,7.45-12.38,1.3-2.27,2.87-3.55,5.55-2.45,2.22.92,4.15,2.11,4.5,4.38a31.61,31.61,0,1,0,28.69-18.35ZM56.2,114.46c-.17.61-.36,1.22-.57,1.81a34.81,34.81,0,0,1-2.35,4.55l.18,0A25.5,25.5,0,1,1,16,87.58v0a27.91,27.91,0,0,1,8.91-4.49l.29-.08.13,0a25.25,25.25,0,0,1,6.31-.79c.74,0,1.48,0,2.21.1,4,.58,4.87,2.8,2.82,6.85-.85,1.68-1.31,3.57-2.15,5.25-1.61,3.23-3,6.43-6.54,8.49s-4,5-2.29,7.7c2.13,3.35,5.91,4.7,9.11,2.33,5.93-4.38,12.46-2.31,18.72-2.3C56.12,110.62,56.56,112.54,56.2,114.46ZM47.61,88.15a66.06,66.06,0,0,1,8.11,11.68c1.77,3.33-.26,5.8-4.15,5.93-1.77.06-3.54,0-5.3,0v-.07a60.09,60.09,0,0,1-6.44,0c-2.91-.32-3.93-2.57-2.72-5.23q2.45-5.3,4.67-10.7C43,86.77,45.57,85.76,47.61,88.15Zm74.09,2.13c.38,2.25.64,4.51.91,6.49-.06,3.22-1.29,4.09-3.76,2.75-2.67-1.44-5.31-3-7.82-4.66-1.86-1.25-2.51-2.54-2-3.89a25.61,25.61,0,0,1,9.27-6.24C120.12,84.75,121.05,86.5,121.7,90.28ZM97.63,86.75c-2.5-1.84-2.57-3.63-.95-6.43,3.67-6.39,1.42-11.2-5.68-13.75-4.16-1.48-8.2-3.31-12.3-4.94-2.64-1.06-3-2.78-1-4.63a69.19,69.19,0,0,1,7.27-6c1.81-1.33,3.39-.69,4.14,1.47.32.94.36,2,.64,3,1.23,4.23,4,5.64,8.16,4,3.3-1.29,6.5-2.77,9.8-4,5.38-2.06,6.72-.6,7.38,3.52.88,5.6,2.3,11.12,3.66,17.42-.59.67-1.25,1.69-2.11,2.52A31.74,31.74,0,0,0,103.5,88C101.47,88.84,99.63,88.23,97.63,86.75ZM127.51,134a25.55,25.55,0,0,1-25-20.64l.35.12-.69-2.4a24.68,24.68,0,0,1-.13-2.59,25.29,25.29,0,0,1,1.81-9.43c1-1,2.42-1.07,4.09-.11,3.84,2.19,7.63,4.5,11.23,7.06a8.2,8.2,0,0,1,2.63,4c1,2.94,3.34,4.34,5.76,3.93a9.85,9.85,0,0,0,6-3.87c1.41-2.15.52-4.74-1.59-6.79-5.11-5-5.37-11.75-6-18.23a2.47,2.47,0,0,1,.62-2.07l1,0a25.51,25.51,0,0,1,0,51Z"/></g></g></svg>