<svg xmlns="http://www.w3.org/2000/svg" viewBox="0 0 132.9 141.46"><g id="Layer_2" data-name="Layer 2"><g id="Layer_1-2" data-name="Layer 1"><path d="M106.92,92c4.49-.31,4.82-2.82,4.28-6.36-.35-2.27-.31-4.6-.47-7.27-.89-5.93,1.12-13.2-5.92-17.48-.42-.25-.53-1.08-.7-1.67-1.65-5.6-3.35-11.19-4.89-16.83-1.73-6.35-4.55-8.76-11.09-8.79-13.41-.07-26.82,0-40.23,0-9.57,0-11,1.33-14.07,10.52-2.44,7.29-2.49,15.7-9.31,21.11-.49.39-.59,1.42-.65,2.17-.62,6.74-1.29,13.48-1.66,20.23-.07,1.24,1.1,3.64,1.77,3.66,6.31.24,5.44,4.48,5.29,8.58-.19,5.18,1.53,6.82,6.83,6.89,1.23,0,2.47,0,3.7,0,3.81.17,5.31-1.82,5.15-5.41,0-.92-.12-1.84-.15-2.77-.2-6,.52-6.78,6.38-6.81,9.1,0,18.19,0,27.29,0s9,0,9.9,8.92c.22,2.1,2.12,5.3,3.83,5.75,8.89,2.33,11.47.12,11.59-8.84,0-.77-.25-1.73.11-2.27C104.74,94.06,105.82,92.1,106.92,92ZM33,77.39c-2-.42-3.61-2.87-5.38-4.45,1.73-1.66,3.24-4.2,5.25-4.69,1.35-.33,3.41,2.23,5.16,3.49l0,2.13C36.38,75.14,34.42,77.67,33,77.39ZM66.58,62.51c-10.16,0-20.33-.1-30.49.05-4,0-5.4-1.45-4.19-5.3C33.6,51.84,35.18,46.37,37,41c1.33-3.93,4.19-5.81,8.45-5.79q21.24.09,42.49,0c4.36,0,7.38,1.72,8.71,6C98.4,47,100.2,52.67,102,58.39c1.15,3.74-1.14,4.14-4,4.13C87.51,62.49,77,62.51,66.58,62.51Zm33.58,14.9c-1.93-.4-4.42-2.84-4.69-4.7-.2-1.34,2.78-4.36,4.43-4.42,1.82-.08,3.75,2.36,5.63,3.7L105.47,74C103.68,75.27,101.62,77.72,100.16,77.41Z"/><path d="M95.68,13.6c3.11,1.67,5.79,3.47,4.87,7.78l14.76,2.93c-1.76-5.51-3.17-9.95-4.3-13.52-3.37-.52-5.82-.26-7.54-1.27C87.71.28,70.61-2,53.19,1.7c-21.83,4.67-38,17.66-47.92,37.8C2.33,45.49-.15,51.82,0,60c1.57-5.06,2.54-9.05,4-12.83A65.2,65.2,0,0,1,95.68,13.6Z"/><path d="M128.81,94.62A65.21,65.21,0,0,1,37,127.75c-3.11-1.68-5.78-3.49-4.85-7.8l-14.74-3c1.73,5.52,3.12,10,4.25,13.53,3.36.54,5.81.29,7.52,1.3,15.73,9.31,32.82,11.69,50.26,8,21.84-4.58,38.07-17.5,48.07-37.6,3-6,5.47-12.3,5.35-20.43C131.3,86.85,130.31,90.84,128.81,94.62Z"/></g></g></svg>