<svg xmlns="http://www.w3.org/2000/svg" width="18.871" height="20.2" viewBox="0 0 18.871 20.2"><defs><style>.a{fill:#a8a8a8;stroke:#707070;stroke-width:0.2px;}</style></defs><g transform="translate(-31.9 -15.899)"><path class="a" d="M50.333,240h-6a.336.336,0,0,0-.333.339v2.375H38.333a.336.336,0,0,0-.333.339v2.375H32.333a.336.336,0,0,0-.333.339v4.75a.336.336,0,0,0,.333.339h18a.336.336,0,0,0,.333-.339V240.339A.336.336,0,0,0,50.333,240Zm-11.667,3.393H44v6.786H38.667Zm-6,2.714H38v4.071H32.667ZM50,250.179H44.667v-9.5H50Z" transform="translate(0 -214.858)"/><path class="a" d="M342.093,18.3a.339.339,0,0,0-.271-.228l-1.7-.259-.762-1.623a.339.339,0,0,0-.614,0l-.762,1.623-1.7.259a.339.339,0,0,0-.192.573l1.238,1.268-.293,1.8a.339.339,0,0,0,.5.351l1.513-.837,1.513.837a.339.339,0,0,0,.5-.352l-.293-1.8,1.238-1.268A.339.339,0,0,0,342.093,18.3Zm-1.922,1.262a.339.339,0,0,0-.092.292l.208,1.274-1.066-.589a.339.339,0,0,0-.328,0l-1.066.589.208-1.274a.339.339,0,0,0-.092-.292l-.9-.918,1.223-.187a.339.339,0,0,0,.256-.191l.532-1.133.532,1.133a.339.339,0,0,0,.256.191l1.223.187Z" transform="translate(-291.444)"/><path class="a" d="M32.339,126.106h3.732a.339.339,0,0,0,.3-.188l1.263-2.527h4.54a.339.339,0,0,0,.288-.159l1.7-2.714a.339.339,0,1,0-.575-.36l-1.6,2.555H37.429a.339.339,0,0,0-.3.188l-1.263,2.527H32.339a.339.339,0,1,0,0,.679Z" transform="translate(0 -99.7)"/></g></svg>