<svg xmlns="http://www.w3.org/2000/svg" viewBox="0 0 96.41 80.25"><g id="Layer_2" data-name="Layer 2"><g id="Layer_1-2" data-name="Layer 1"><path d="M48.16,0H68.47C78.36,0,81.23,2.24,83.91,12c1.08,3.93,2,7.92,3.31,11.78,1.13,3.39,1.74,7,5.26,9.29,1.29.82,2.16,3,2.33,4.71.72,7,1.1,14.05,1.58,21.08.19,2.85-.83,4.68-4,4.58-2.71-.07-3.81,1.38-3.72,4,0,.56-.06,1.13,0,1.69,1,12.4-4.15,10.7-12.85,10.46-2.78-.07-4.66-1.87-4.6-5,0-.43,0-.85,0-1.27.09-10.71.78-9.84-9.76-9.84q-15.22,0-30.46,0c-5.92,0-6.32.41-6.32,6.15,0,9.73-3.09,12.34-12.59,9.83-1.85-.49-3.43-3.2-4.45-5.23-.67-1.35-.18-3.32-.09-5,.18-3.32-.31-5.78-4.57-6-1.09,0-3-2.35-2.94-3.57.22-7.45.83-14.9,1.47-22.33.11-1.31.66-3.1,1.63-3.74C7.32,30.68,8,26.15,9.38,21.91c1.4-4.44,2.66-8.92,4-13.36C15.35,2.44,18.45.1,24.89,0,32.65,0,40.41,0,48.16,0Zm0,31.53c11.29,0,22.57.05,33.86,0,4.27,0,5.09-1.27,3.87-5.19C84.1,20.54,82.38,14.74,80.54,9c-1.45-4.58-4.17-6.88-9-6.92C55.75,1.92,40,2,24.16,2A8.18,8.18,0,0,0,16,7.76c-2.08,6-4,12-5.61,18.12-1.28,4.76-.37,5.65,4.73,5.67C26.16,31.57,37.16,31.55,48.16,31.55ZM79,43.51a5.08,5.08,0,0,0,5,4.72c2.53.17,5.69-2.92,5.39-5.47-.34-2.93-2-5-5.18-5.19C81.36,37.36,78.92,40,79,43.51Zm-62.62-.38c-.23-3.16-1.7-5.19-4.83-5.55C9,37.29,5.11,40.52,6,42.63S9.12,47.42,11.27,48C14.22,48.73,15.83,46,16.36,43.13Z"/></g></g></svg>