<svg xmlns="http://www.w3.org/2000/svg" viewBox="0 0 132.25 141.95"><g id="Layer_2" data-name="Layer 2"><g id="Layer_1-2" data-name="Layer 1"><path d="M132.06,59.94C127.41,13.25,77.3-14.63,34.83,8,21.28,15.23,11.17,25.9,5.55,40.43A75.27,75.27,0,0,0,1.46,52.68c-4.1,20.51.43,39.06,13.49,55.41A65.26,65.26,0,0,0,42,127.92c.56.23,1.31.75,1.42,1.26.54,2.56.59,2.68,3.21,2.7.66,0,1.32,0,2,0a2.25,2.25,0,0,1,2.63,2.1,2.86,2.86,0,0,0,2.55,2.58c3,.74,5.9,1.53,8.85,2.29.78.21,1.45.39,1.4,1.47-.06,1.24.78,1.63,1.89,1.62,1.49,0,3,0,4.48,0s2-.59,1.94-1.95c0-2.75,0-5.5,0-8.25,0-6.52,0-13,0-19.56,0-1.62-.59-2.3-2.23-2.2-1.43.08-2.87,0-4.3,0-1,0-1.84.36-1.79,1.5s-.65,1.36-1.51,1.58c-2.95.76-5.89,1.58-8.85,2.3a2.68,2.68,0,0,0-2.42,2.46,2.37,2.37,0,0,1-2.73,2.23c-.72,0-1.44,0-2.15,0-1.42-.09-2.65.13-3,1.76C20.3,112.71-1.1,85.81,8,50.94,16.28,18.86,47.11,1,78.09,7.26c31.17,6.26,48.87,34.48,48.1,58.64H106.74c-.14-3.53-1.81-6-5.27-7.66a7.72,7.72,0,0,1,1.81-.84,21,21,0,0,1,2.51,0c2.14,0,2.53-.62,2-2.64a2.05,2.05,0,0,0-2.42-1.8,32.32,32.32,0,0,1-3.41,0,1.6,1.6,0,0,0-1.84,1.7,17.49,17.49,0,0,1-.52,2.22c-.45-.61-.66-.82-.8-1.08-1.89-3.51-3.81-7-5.65-10.56A4.39,4.39,0,0,0,89,42.58q-22.87,0-45.75,0a4.32,4.32,0,0,0-4,2.54Q37.61,48.22,36,51.3c-.95,1.77-1.91,3.52-3,5.46a5,5,0,0,1-.64-.93C31.49,53,31.5,53,28.55,53c-.65,0-1.31,0-2,0-1.38.07-2.26,1.24-2.21,2.89.05,1.44,1,1.55,2.14,1.52a16.14,16.14,0,0,1,2.51,0,9.13,9.13,0,0,1,2,.86c-4.39,2.06-5.53,5.22-5.11,9.27.37,3.57.58,7.16.72,10.74.15,3.82.15,7.65.2,11.48,0,2.14.52,2.69,2.59,2.71,2.93,0,5.86,0,8.79,0,2.21,0,2.69-.52,2.71-2.78V87.25H91.52c0,1,0,2,0,2.9,0,1.68.77,2.36,2.42,2.34,3,0,6.1,0,9.15,0,1.88,0,2.45-.57,2.47-2.47,0-2.69-.08-5.38,0-8.07.13-3.26.41-6.51.64-9.9h25.88C132.11,67.81,132.45,63.84,132.06,59.94ZM38,54.66c1.12-2.51,2.27-5,3.34-7.54a2.41,2.41,0,0,1,2.45-1.68c14.87,0,29.74,0,44.62.06a3,3,0,0,1,2.27,1.26c1.82,3.61,3.44,7.33,5.11,11a2,2,0,0,1,0,.73,399.8,399.8,0,0,0-59.54.06C36.91,57.19,37.47,55.92,38,54.66Zm7.05,13.07a6.38,6.38,0,0,0-.33,1.21A2.13,2.13,0,0,1,42.08,71a36.45,36.45,0,0,0-3.77,0,2.35,2.35,0,0,0-.53,0c-3.88.91-6-1.34-8-4.2-.86-1.27-.05-2,.45-2.87a1.52,1.52,0,0,1,2.28-.61A22.25,22.25,0,0,0,43.74,65.8C45.13,65.7,45.58,66.42,45.09,67.73ZM83.27,80c-5.78.38-11.57.7-17,1-5.87-.34-11.37-.64-16.85-1-1.73-.11-3.17-2.69-2.2-4.08a2.75,2.75,0,0,1,2-.72c8.37,0,16.74,0,25.11,0,2.93,0,5.86,0,8.79,0,1,0,2.12,0,2.18,1.45C85.43,78.76,84.76,79.93,83.27,80Zm19.42-13.45c-1,1.32-2.06,2.65-3.21,3.87a2.54,2.54,0,0,1-1.6.52c-1.37.07-2.74,0-4.12,0H91.43c-3.53,0-3.5,0-4.24-3.55-.24-1.11.13-1.71,1.2-1.64a24.86,24.86,0,0,0,11.77-2.54,2.23,2.23,0,0,1,1.88.65C102.66,64.61,103.57,65.46,102.69,66.58Z"/><path d="M86,132.44c-2.57,0-5.14,0-7.71,0-4.5,0-4.5,0-4,4.48,0,.05.06.1.23.45,3.83,0,7.7,0,11.58,0,1.85,0,2.86-.94,2.85-2.48S87.83,132.46,86,132.44Z"/><path d="M85.93,114.56c-3.52,0-7.05,0-10.57,0a7,7,0,0,0-1.14.2v4.69c4,0,7.82,0,11.64,0,2,0,3-.9,3-2.49S87.82,114.57,85.93,114.56Z"/></g></g></svg>