<svg xmlns="http://www.w3.org/2000/svg" width="992.14" height="992.14" viewBox="0 0 992.14 992.14">
  <g id="email-01" transform="translate(-15.93 -15.93)">
    <g id="Group_52" data-name="Group 52">
      <path id="Path_172" data-name="Path 172" d="M512,40.93A471.189,471.189,0,0,1,695.35,946.04,471.184,471.184,0,0,1,328.64,77.95,467.928,467.928,0,0,1,512,40.93m0-25C238.03,15.93,15.93,238.03,15.93,512S238.03,1008.07,512,1008.07,1008.07,785.97,1008.07,512,785.97,15.93,512,15.93Z" fill="#060606"/>
    </g>
    <g id="Group_54" data-name="Group 54">
      <g id="Group_53" data-name="Group 53">
        <path id="Path_173" data-name="Path 173" d="M718.53,337.24H305.47a47.714,47.714,0,0,0-47.66,47.66V639.1a47.714,47.714,0,0,0,47.66,47.66H718.53a47.714,47.714,0,0,0,47.66-47.66V384.9A47.714,47.714,0,0,0,718.53,337.24Zm-8.52,31.78L512,538.73,313.99,369.02Zm8.52,285.96H305.47a15.9,15.9,0,0,1-15.89-15.89V389.93L501.66,571.71a15.873,15.873,0,0,0,20.68,0L734.42,389.93V639.09A15.9,15.9,0,0,1,718.53,654.98Z"/>
      </g>
    </g>
  </g>
</svg>
