<?xml version="1.0" encoding="utf-8"?>
<!-- Generator: Adobe Illustrator 23.0.2, SVG Export Plug-In . SVG Version: 6.00 Build 0)  -->
<svg version="1.1" id="Layer_1" xmlns="http://www.w3.org/2000/svg" xmlns:xlink="http://www.w3.org/1999/xlink" x="0px" y="0px"
	 viewBox="0 0 1024 1024" style="enable-background:new 0 0 1024 1024;" xml:space="preserve">
<!--<style type="text/css">
	.st0{fill:#FBBB00;}
	.st1{fill:#518EF8;}
	.st2{fill:#28B446;}
	.st3{fill:#F14336;}
</style>-->
<g>
	<path class="st0" d="M233.72,616.28l-34.8,129.9l-127.18,2.69C33.74,678.37,12.18,597.71,12.18,512
		c0-82.88,20.16-161.04,55.89-229.86h0.03l113.23,20.76l49.6,112.55c-10.38,30.26-16.04,62.75-16.04,96.56
		C214.88,548.69,221.53,583.84,233.72,616.28z"/>
	<path class="st1" d="M1003.09,418.63c5.74,30.24,8.73,61.46,8.73,93.37c0,35.78-3.76,70.69-10.93,104.36
		c-24.33,114.57-87.91,214.62-175.98,285.42l-0.03-0.03l-142.61-7.28l-20.18-126c58.44-34.27,104.11-87.91,128.17-152.12H522.99
		V418.63h271.17H1003.09L1003.09,418.63z"/>
	<path class="st2" d="M824.88,901.75l0.03,0.03c-85.66,68.85-194.46,110.04-312.91,110.04c-190.34,0-355.84-106.39-440.26-262.96
		l161.98-132.59C275.93,728.93,384.6,809.12,512,809.12c54.76,0,106.06-14.8,150.08-40.65L824.88,901.75z"/>
	<path class="st3" d="M831.04,127.25L669.11,259.81c-45.56-28.48-99.42-44.93-157.11-44.93c-130.28,0-240.99,83.87-281.08,200.56
		L68.09,282.14h-0.03C151.25,121.75,318.83,12.18,512,12.18C633.28,12.18,744.47,55.38,831.04,127.25z"/>
</g>
</svg>
