<svg xmlns="http://www.w3.org/2000/svg" width="129.54" height="130.562" viewBox="0 0 129.54 130.562"><defs><style>.a{fill:#4c95cc;}</style></defs><g transform="matrix(1, -0.017, 0.017, 1, -189.063, -216.158)"><path class="a" d="M265.711,222.012l-.046-.462H265.2c-1.279,0-2.711-.04-4.265-.08-10.483-.3-26.578-.871-36.044,8.551-4.886,4.861-7.363,11.912-7.369,20.97l-.011,4.791,1.025-4.68c6.028-27.511,29.573-27.4,40.9-27.361l3.589.026h.566c1.628,17.353-3.633,38.626-11.8,47.63-4.424,4.868-9.351,5.845-14.462,2.787-.594-.365-1.7-.183-2.128,1.279-.548,1.909-1.759,6.377-1.984,7.327-.342,1.41.342,2.192.89,2.386a23.05,23.05,0,0,0,7.436,1.279,19.684,19.684,0,0,0,14.979-6.708C265.49,269.856,268.581,250.443,265.711,222.012Z" transform="translate(28.224)"/><path class="a" d="M228.1,295.279c1.021-31.784,8.052-53.994,20.332-64.207l3.385-2.82-3.949,1.958c-18.4,9.122-28.952,30.322-32.275,64.808a7.214,7.214,0,0,1-.559,1.712c-.623,1.542-1.4,3.46.25,4.631a12.864,12.864,0,0,0,5.865,1.028,19.251,19.251,0,0,0,6.539-.858c1.817-.873,1.249-2.806.793-4.351A6.944,6.944,0,0,1,228.1,295.279Z" transform="translate(25.563 5.714)"/><path class="a" d="M236.293,254.494l-.108-.141a39.4,39.4,0,0,0-24.378-14.584l-3.131-.376,2.848,1.355a36.1,36.1,0,0,1,16.511,14.337,21.933,21.933,0,0,1-5.48,14.856,10.412,10.412,0,0,1-7.707,3.807,15.923,15.923,0,0,1-11.285-5.447c-7.036-7.383-10.611-20.731-10.074-37.629a85.192,85.192,0,0,1,15.413-1.582c13.139.053,20.939,4.828,23.841,14.595l.9,2.994.122-3.124c.2-5.365-.966-9.188-3.683-12.029-3.372-3.507-9.2-5.316-17.353-5.347a104.8,104.8,0,0,0-21.454,2.616l-.4.086-.011.411c-.621,37.921,5.8,52.918,22.884,53.455.267.009.524.013.782.013a17.618,17.618,0,0,0,13.055-5.489c6.8-6.923,8.806-18.214,8.71-22.594V254.5Z" transform="translate(6.155 4.002)"/><path class="a" d="M183.372,297.744a3.536,3.536,0,0,1,2.36-3.264,2.068,2.068,0,0,1-1.335-2.009,2.782,2.782,0,0,1,1.421-2.309,4.528,4.528,0,0,1-1.814-3.8v-.846a4.567,4.567,0,0,1,1.553-3.558,5.877,5.877,0,0,1,4.061-1.388,5.724,5.724,0,0,1,3.5,1.027c.585-1.348,1.24-2.022,1.96-2.022a1.306,1.306,0,0,1,.937.345,1.023,1.023,0,0,1,.365.742.831.831,0,0,1-.511.753,3.471,3.471,0,0,0-1.505,1.207,4.519,4.519,0,0,1,.963,2.9v.846a4.594,4.594,0,0,1-1.6,3.593,5.96,5.96,0,0,1-4.1,1.417,5.638,5.638,0,0,1-2.084-.365,1.072,1.072,0,0,0-.574.848c0,.407.318.7.954.882a14.011,14.011,0,0,0,2.289.427q1.343.153,2.689.444a4.534,4.534,0,0,1,2.292,1.238,3.352,3.352,0,0,1,.95,2.5,3.714,3.714,0,0,1-1.794,3.361,8.369,8.369,0,0,1-4.541,1.132,8.768,8.768,0,0,1-4.589-1.112,3.376,3.376,0,0,1-1.843-2.978Zm2.988-.338a2.026,2.026,0,0,0,.946,1.755,4.26,4.26,0,0,0,2.462.656,4.061,4.061,0,0,0,2.386-.641,2.03,2.03,0,0,0,.9-1.739,1.712,1.712,0,0,0-.422-1.176,2.539,2.539,0,0,0-1.253-.7,10.7,10.7,0,0,0-1.419-.3c-.391-.053-.913-.1-1.582-.141Q186.36,295.884,186.36,297.406Zm.731-11.073a3.289,3.289,0,0,0,.7,2.17,2.537,2.537,0,0,0,3.768.015,3.235,3.235,0,0,0,.7-2.159v-.846a3.143,3.143,0,0,0-.7-2.1,2.351,2.351,0,0,0-1.9-.827,2.3,2.3,0,0,0-1.867.827,3.16,3.16,0,0,0-.7,2.1v.82Z" transform="translate(0 48.134)"/><path class="a" d="M192.425,293.537V281.314a.857.857,0,0,1,.437-.731,1.98,1.98,0,0,1,1.1-.287,1.8,1.8,0,0,1,1.025.29.873.873,0,0,1,.424.749v1.342a4.8,4.8,0,0,1,1.554-1.818,3.851,3.851,0,0,1,2.278-.743h.966a1.085,1.085,0,0,1,.842.411,1.447,1.447,0,0,1,.365.99,1.507,1.507,0,0,1-.365,1.01,1.074,1.074,0,0,1-.842.424h-.966a3.33,3.33,0,0,0-2.557,1.233,4.61,4.61,0,0,0-1.1,3.191v6.167a.9.9,0,0,1-.482.722,1.949,1.949,0,0,1-1.145.332,1.754,1.754,0,0,1-1.1-.332A.913.913,0,0,1,192.425,293.537Z" transform="translate(7.484 48.589)"/><path class="a" d="M198.686,288.837v-2.87a5.48,5.48,0,0,1,1.841-4.117,6.235,6.235,0,0,1,4.437-1.735,6.165,6.165,0,0,1,4.24,1.569,5.071,5.071,0,0,1,1.763,3.962,4.476,4.476,0,0,1-.208,1.491,1.418,1.418,0,0,1-.665.8,2.947,2.947,0,0,1-.846.294,7.313,7.313,0,0,1-1.025.058h-6.366v.7a2.974,2.974,0,0,0,1.085,2.417,4.3,4.3,0,0,0,2.835.9,4.948,4.948,0,0,0,2.338-.575,4.993,4.993,0,0,1,1.343-.579,1.074,1.074,0,0,1,.877.484,1.582,1.582,0,0,1,.365.943q0,.742-1.449,1.505a8.571,8.571,0,0,1-8.6-.9A5.414,5.414,0,0,1,198.686,288.837Zm3.171-2.557h5.007a1.52,1.52,0,0,0,.89-.183.886.886,0,0,0,.226-.716,2.684,2.684,0,0,0-.877-2.02,3.032,3.032,0,0,0-2.172-.827,3.211,3.211,0,0,0-2.17.785,2.533,2.533,0,0,0-.9,2.009Z" transform="translate(12.657 48.585)"/><path class="a" d="M207.326,288.837v-2.87a5.48,5.48,0,0,1,1.839-4.117,6.24,6.24,0,0,1,4.437-1.735,6.145,6.145,0,0,1,4.238,1.569,5.064,5.064,0,0,1,1.766,3.962,4.423,4.423,0,0,1-.21,1.491,1.4,1.4,0,0,1-.663.8,2.987,2.987,0,0,1-.846.294,7.325,7.325,0,0,1-1.027.058H210.5v.7a2.965,2.965,0,0,0,1.1,2.417,4.305,4.305,0,0,0,2.837.9,4.96,4.96,0,0,0,2.338-.575,4.969,4.969,0,0,1,1.344-.579,1.074,1.074,0,0,1,.875.484,1.6,1.6,0,0,1,.365.943c0,.495-.486,1-1.448,1.505a8.571,8.571,0,0,1-8.6-.9,5.423,5.423,0,0,1-1.978-4.344Zm3.171-2.557h5a1.505,1.505,0,0,0,.886-.183.873.873,0,0,0,.228-.716,2.682,2.682,0,0,0-.875-2.02,3.032,3.032,0,0,0-2.172-.827,3.2,3.2,0,0,0-2.17.785,2.535,2.535,0,0,0-.913,2.009Z" transform="translate(19.8 48.585)"/><path class="a" d="M216.263,293.537V281.315a.853.853,0,0,1,.437-.731,2.037,2.037,0,0,1,1.133-.287,1.733,1.733,0,0,1,1.012.29.882.882,0,0,1,.409.749v1.1a4.1,4.1,0,0,1,1.553-1.644,4.589,4.589,0,0,1,2.49-.67,4.777,4.777,0,0,1,3.693,1.75,6.1,6.1,0,0,1,1.558,4.2v7.489a.882.882,0,0,1-.471.773,2.309,2.309,0,0,1-2.216,0,.864.864,0,0,1-.482-.771V286.1a3.093,3.093,0,0,0-.913-2.168,2.857,2.857,0,0,0-2.144-.963,2.806,2.806,0,0,0-2.009.857,3.038,3.038,0,0,0-.875,2.272v7.462a.9.9,0,0,1-.484.721,1.9,1.9,0,0,1-1.116.333,1.81,1.81,0,0,1-1.116-.333A.913.913,0,0,1,216.263,293.537Z" transform="translate(27.189 48.589)"/><path class="a" d="M225.563,300.091V281.08a.857.857,0,0,1,.435-.731,1.937,1.937,0,0,1,1.074-.287,1.826,1.826,0,0,1,1.054.289.879.879,0,0,1,.422.751v1.1a4.567,4.567,0,0,1,1.617-1.644,4.47,4.47,0,0,1,2.429-.672,5,5,0,0,1,3.847,1.75,6.028,6.028,0,0,1,1.584,4.2v2.778a6.171,6.171,0,0,1-1.6,4.181,4.817,4.817,0,0,1-3.714,1.827,4.4,4.4,0,0,1-2.4-.7,4.286,4.286,0,0,1-1.586-1.679v7.869a.9.9,0,0,1-.479.731,2.074,2.074,0,0,1-1.147.318,1.827,1.827,0,0,1-1.1-.316.9.9,0,0,1-.444-.749Zm3.166-10.819a2.493,2.493,0,0,0,.913,1.576,2.891,2.891,0,0,0,4.271-.059,3.105,3.105,0,0,0,.937-2.192v-2.76a3.023,3.023,0,0,0-.937-2.157,2.979,2.979,0,0,0-2.2-.957,3.012,3.012,0,0,0-2.99,3.114v3.445Z" transform="translate(34.877 48.393)"/><path class="a" d="M234.862,297.345V276.61a.862.862,0,0,1,.438-.731,2.026,2.026,0,0,1,1.133-.287,2.131,2.131,0,0,1,1.133.287.846.846,0,0,1,.468.731v20.734a.913.913,0,0,1-.484.731,1.965,1.965,0,0,1-1.116.329,1.863,1.863,0,0,1-1.114-.329.924.924,0,0,1-.457-.731Z" transform="translate(42.564 44.847)"/><path class="a" d="M238.882,290.82a3.471,3.471,0,0,1,1.812-3.365,11.57,11.57,0,0,1,5.252-.952h1.328v-.548a3.814,3.814,0,0,0-.731-2.351,2.628,2.628,0,0,0-2.247-.985,4.965,4.965,0,0,0-2.28.493,7.287,7.287,0,0,1-1.069.5.948.948,0,0,1-.831-.5,2,2,0,0,1-.318-1.1c0-.521.486-.975,1.461-1.357a8.466,8.466,0,0,1,3.094-.572,5.845,5.845,0,0,1,4.6,1.675,6.039,6.039,0,0,1,1.494,4.178v7.577a.913.913,0,0,1-.438.731,1.838,1.838,0,0,1-1.1.316,1.668,1.668,0,0,1-1.028-.316.913.913,0,0,1-.42-.731V292.46a5.931,5.931,0,0,1-4.557,2.355,4.115,4.115,0,0,1-2.883-1.03A3.77,3.77,0,0,1,238.882,290.82Zm3.2-.393a1.874,1.874,0,0,0,.548,1.461,2.009,2.009,0,0,0,1.419.5,3.217,3.217,0,0,0,2.192-.964,2.82,2.82,0,0,0,1.038-2.055v-1.114h-.754a16.918,16.918,0,0,0-2.218.119,3.287,3.287,0,0,0-1.54.634A1.692,1.692,0,0,0,242.083,290.427Z" transform="translate(45.876 48.548)"/><path class="a" d="M246.907,299.6q0-1.328.875-1.33a3.938,3.938,0,0,0,2.687-1.266,5.831,5.831,0,0,0,1.629-3.569L247.027,282a.641.641,0,0,1-.121-.415,1.26,1.26,0,0,1,.694-1.017,2.521,2.521,0,0,1,1.39-.457.913.913,0,0,1,.966.561l3.8,9.579,3.259-9.579a.933.933,0,0,1,.9-.561,2.66,2.66,0,0,1,1.375.457,1.3,1.3,0,0,1,.731,1.078.731.731,0,0,1-.06.354L255.5,293.527l-.511,1.33c-.121.272-.309.7-.559,1.266a11.164,11.164,0,0,1-.65,1.3l-.731,1.1a3.985,3.985,0,0,1-.913,1.016c-.3.225-.641.462-1.023.709a4.072,4.072,0,0,1-1.279.53,6.247,6.247,0,0,1-1.474.164C247.4,300.921,246.907,300.488,246.907,299.6Z" transform="translate(52.52 48.577)"/></g></svg>