<svg xmlns="http://www.w3.org/2000/svg" width="304" height="57.225" viewBox="0 0 304 57.225"><defs><style>.a{fill:#fff;}</style></defs><g transform="translate(-31 -276)"><g transform="translate(-141.302 -110.389)"><path class="a" d="M261.626,444.436q0-3.552,3.925-5.425a3.435,3.435,0,0,1-2.218-3.335,4.629,4.629,0,0,1,2.359-3.839,7.532,7.532,0,0,1-3.015-6.319v-1.406a7.563,7.563,0,0,1,2.585-5.914,9.749,9.749,0,0,1,6.743-2.305,9.529,9.529,0,0,1,5.818,1.7q1.455-3.359,3.259-3.361a2.174,2.174,0,0,1,1.554.572,1.706,1.706,0,0,1,.6,1.233,1.375,1.375,0,0,1-.851,1.25,5.793,5.793,0,0,0-2.506,2.006,7.489,7.489,0,0,1,1.6,4.813v1.406a7.625,7.625,0,0,1-2.656,5.967,9.9,9.9,0,0,1-6.823,2.358,9.3,9.3,0,0,1-3.46-.6,1.786,1.786,0,0,0-.953,1.411q0,1.017,1.585,1.471a23.355,23.355,0,0,0,3.805.708,45.007,45.007,0,0,1,4.468.737,7.533,7.533,0,0,1,3.807,2.055,5.576,5.576,0,0,1,1.582,4.153,6.176,6.176,0,0,1-2.984,5.586,13.953,13.953,0,0,1-7.547,1.882,14.426,14.426,0,0,1-7.622-1.854A5.6,5.6,0,0,1,261.626,444.436Zm4.965-.56a3.381,3.381,0,0,0,1.577,2.918,7.058,7.058,0,0,0,4.089,1.089,6.747,6.747,0,0,0,3.961-1.063,3.367,3.367,0,0,0,1.5-2.888,2.832,2.832,0,0,0-.7-1.954,4.2,4.2,0,0,0-2.08-1.165,17.234,17.234,0,0,0-2.359-.506q-.977-.128-2.632-.231-3.354,1.268-3.357,3.8Zm1.2-18.406a5.479,5.479,0,0,0,1.155,3.608,4.217,4.217,0,0,0,6.265.025,5.389,5.389,0,0,0,1.157-3.585v-1.406a5.238,5.238,0,0,0-1.157-3.483,3.9,3.9,0,0,0-3.157-1.378,3.838,3.838,0,0,0-3.109,1.378,5.245,5.245,0,0,0-1.155,3.483v1.358Z" transform="translate(0 -12.322)"/><path class="a" d="M317.128,439.893v-20.31a1.425,1.425,0,0,1,.724-1.228,3.285,3.285,0,0,1,1.832-.476,2.954,2.954,0,0,1,1.7.483,1.45,1.45,0,0,1,.7,1.24v2.232a7.982,7.982,0,0,1,2.582-3.017,6.393,6.393,0,0,1,3.789-1.238h1.6a1.811,1.811,0,0,1,1.4.682,2.4,2.4,0,0,1,.6,1.646,2.509,2.509,0,0,1-.6,1.675,1.788,1.788,0,0,1-1.4.707h-1.6a5.539,5.539,0,0,0-4.239,2.05,7.657,7.657,0,0,0-1.832,5.3v10.25a1.5,1.5,0,0,1-.8,1.2,3.261,3.261,0,0,1-1.906.553,2.922,2.922,0,0,1-1.832-.553,1.535,1.535,0,0,1-.722-1.2Z" transform="translate(-28.02 -14.011)"/><path class="a" d="M355.5,432.07v-4.765a9.09,9.09,0,0,1,3.061-6.843,10.354,10.354,0,0,1,7.372-2.882,10.23,10.23,0,0,1,7.046,2.607,8.426,8.426,0,0,1,2.931,6.586,7.3,7.3,0,0,1-.35,2.476,2.318,2.318,0,0,1-1.1,1.328,4.756,4.756,0,0,1-1.407.487,11.633,11.633,0,0,1-1.7.1H360.763v1.166a4.927,4.927,0,0,0,1.806,4.013,7.13,7.13,0,0,0,4.713,1.492,8.242,8.242,0,0,0,3.883-.958,8.338,8.338,0,0,1,2.233-.963,1.786,1.786,0,0,1,1.456.8,2.646,2.646,0,0,1,.6,1.565q0,1.238-2.409,2.5a14.235,14.235,0,0,1-14.288-1.494,9,9,0,0,1-3.261-7.22Zm5.268-4.263h8.323a2.55,2.55,0,0,0,1.478-.294,1.472,1.472,0,0,0,.381-1.188,4.456,4.456,0,0,0-1.458-3.354,5.043,5.043,0,0,0-3.611-1.38,5.315,5.315,0,0,0-3.608,1.309,4.22,4.22,0,0,0-1.5,3.33v1.579Z" transform="translate(-47.387 -14.01)"/><path class="a" d="M408.465,432.07v-4.765a9.093,9.093,0,0,1,3.057-6.843,10.355,10.355,0,0,1,7.372-2.882,10.22,10.22,0,0,1,7.046,2.608,8.424,8.424,0,0,1,2.936,6.586,7.3,7.3,0,0,1-.352,2.476,2.323,2.323,0,0,1-1.1,1.328,4.793,4.793,0,0,1-1.4.487,11.674,11.674,0,0,1-1.706.1H413.729v1.166a4.928,4.928,0,0,0,1.806,4.013,7.139,7.139,0,0,0,4.714,1.492,8.256,8.256,0,0,0,3.883-.958,8.289,8.289,0,0,1,2.235-.963,1.779,1.779,0,0,1,1.453.8,2.647,2.647,0,0,1,.6,1.565q0,1.238-2.405,2.5a14.235,14.235,0,0,1-14.288-1.494,8.994,8.994,0,0,1-3.262-7.22Zm5.265-4.263h8.325a2.552,2.552,0,0,0,1.477-.294,1.464,1.464,0,0,0,.379-1.188,4.461,4.461,0,0,0-1.457-3.354,5.042,5.042,0,0,0-3.61-1.38,5.309,5.309,0,0,0-3.608,1.309,4.22,4.22,0,0,0-1.506,3.33v1.579Z" transform="translate(-74.128 -14.01)"/><path class="a" d="M463.254,439.893v-20.31a1.419,1.419,0,0,1,.728-1.228,3.381,3.381,0,0,1,1.882-.476,2.84,2.84,0,0,1,1.68.483,1.46,1.46,0,0,1,.678,1.24v1.829a6.837,6.837,0,0,1,2.581-2.738,7.652,7.652,0,0,1,4.138-1.111,7.954,7.954,0,0,1,6.14,2.907,10.139,10.139,0,0,1,2.584,6.968v12.436a1.45,1.45,0,0,1-.78,1.28,3.53,3.53,0,0,1-1.877.476,3.483,3.483,0,0,1-1.806-.476,1.436,1.436,0,0,1-.8-1.276v-12.4a5.146,5.146,0,0,0-1.506-3.6,4.741,4.741,0,0,0-3.565-1.6,4.669,4.669,0,0,0-3.357,1.425,5.047,5.047,0,0,0-1.453,3.777v12.4a1.507,1.507,0,0,1-.8,1.2,3.178,3.178,0,0,1-1.856.553,3.042,3.042,0,0,1-1.858-.553,1.524,1.524,0,0,1-.75-1.2Z" transform="translate(-101.79 -14.011)"/><path class="a" d="M520.268,449.717V418.126a1.414,1.414,0,0,1,.726-1.226,3.169,3.169,0,0,1,1.783-.477,3.016,3.016,0,0,1,1.754.481,1.455,1.455,0,0,1,.7,1.242v1.829a7.548,7.548,0,0,1,2.684-2.738,7.438,7.438,0,0,1,4.034-1.118,8.306,8.306,0,0,1,6.393,2.911A10.01,10.01,0,0,1,540.976,426v4.619a10.235,10.235,0,0,1-2.657,6.946,8,8,0,0,1-6.167,3.031,7.3,7.3,0,0,1-3.987-1.166,7.075,7.075,0,0,1-2.632-2.786v13.072a1.5,1.5,0,0,1-.8,1.231,3.4,3.4,0,0,1-1.906.53,3.036,3.036,0,0,1-1.832-.526A1.493,1.493,0,0,1,520.268,449.717Zm5.264-17.974a4.147,4.147,0,0,0,1.53,2.617,4.869,4.869,0,0,0,3.535,1.515,4.813,4.813,0,0,0,3.56-1.617,5.158,5.158,0,0,0,1.556-3.658v-4.586a5.025,5.025,0,0,0-1.556-3.585,4.943,4.943,0,0,0-3.658-1.592,5,5,0,0,0-4.966,5.177Z" transform="translate(-130.572 -13.273)"/><path class="a" d="M577.278,425.986V391.534a1.426,1.426,0,0,1,.726-1.228,3.394,3.394,0,0,1,1.882-.476,3.532,3.532,0,0,1,1.877.476,1.411,1.411,0,0,1,.78,1.228v34.452a1.527,1.527,0,0,1-.805,1.205,3.21,3.21,0,0,1-1.852.545,3.07,3.07,0,0,1-1.855-.545A1.531,1.531,0,0,1,577.278,425.986Z" transform="translate(-159.353)"/><path class="a" d="M601.886,435.179q0-4,3.011-5.591t8.722-1.579h2.21v-.923a6.337,6.337,0,0,0-1.23-3.9,4.367,4.367,0,0,0-3.735-1.64,8.232,8.232,0,0,0-3.785.826,12.185,12.185,0,0,1-1.783.828,1.578,1.578,0,0,1-1.38-.828,3.329,3.329,0,0,1-.526-1.832q0-1.3,2.431-2.252a13.949,13.949,0,0,1,5.141-.953q5.165,0,7.646,2.782a10.043,10.043,0,0,1,2.483,6.944v12.591a1.509,1.509,0,0,1-.726,1.228,3.055,3.055,0,0,1-1.829.525,2.773,2.773,0,0,1-1.708-.525,1.523,1.523,0,0,1-.7-1.228v-1.756q-3.361,3.912-7.573,3.912a6.852,6.852,0,0,1-4.788-1.708A6.294,6.294,0,0,1,601.886,435.179Zm5.316-.649a3.128,3.128,0,0,0,.9,2.43,3.344,3.344,0,0,0,2.357.828,5.321,5.321,0,0,0,3.637-1.6,4.688,4.688,0,0,0,1.729-3.413V430.92h-1.257a28.4,28.4,0,0,0-3.683.2,5.448,5.448,0,0,0-2.559,1.053A2.8,2.8,0,0,0,607.2,434.53Z" transform="translate(-171.776 -13.885)"/><path class="a" d="M651.109,449.93q0-2.21,1.453-2.209a6.523,6.523,0,0,0,4.465-2.1,9.7,9.7,0,0,0,2.707-5.928l-8.425-19.01a1.056,1.056,0,0,1-.2-.689,2.1,2.1,0,0,1,1.153-1.69,4.173,4.173,0,0,1,2.307-.76,1.522,1.522,0,0,1,1.606.933l6.315,15.919,5.416-15.919a1.55,1.55,0,0,1,1.5-.933,4.416,4.416,0,0,1,2.282.76,2.15,2.15,0,0,1,1.23,1.789,1.182,1.182,0,0,1-.1.589L665.4,439.832l-.852,2.21c-.2.452-.51,1.155-.928,2.1a19.225,19.225,0,0,1-1.078,2.157l-1.205,1.814a6.706,6.706,0,0,1-1.506,1.688c-.5.376-1.068.766-1.7,1.175a6.783,6.783,0,0,1-2.108.885,10.85,10.85,0,0,1-2.456.27Q651.109,452.134,651.109,449.93Z" transform="translate(-196.626 -13.99)"/></g><path class="a" d="M181.113,383.893l-.03-.306-.306,0c-.843,0-1.79-.028-2.814-.054-6.916-.194-17.529-.575-23.772,5.639-3.221,3.206-4.855,7.859-4.859,13.83l-.007,3.164.676-3.088c3.971-18.143,19.5-18.076,26.973-18.044l2.367.017.376,0c1.072,11.447-2.4,25.473-7.785,31.411-2.919,3.211-6.167,3.849-9.539,1.837-.392-.238-1.123-.118-1.4.846-.369,1.257-1.161,4.206-1.308,4.832-.225.93.223,1.448.585,1.573a15.342,15.342,0,0,0,4.9.849,12.994,12.994,0,0,0,9.879-4.424C180.963,415.451,183,402.643,181.113,383.893Z" transform="translate(-86.162 -107.445)"/><path class="a" d="M150.821,443.977c.676-20.97,5.312-35.611,13.41-42.345l2.234-1.861-2.6,1.291c-12.136,6.017-19.1,20-21.288,42.742a4.828,4.828,0,0,1-.367,1.128c-.412,1.018-.922,2.283.165,3.054.824.581,2.781.673,3.869.678a12.652,12.652,0,0,0,4.313-.564c1.2-.575.822-1.85.522-2.873a4.606,4.606,0,0,1-.255-1.249Z" transform="translate(-82.438 -115.439)"/><path class="a" d="M116.294,413.545l-.074-.092a25.983,25.983,0,0,0-16.076-9.62l-2.065-.247,1.879.9a23.821,23.821,0,0,1,10.891,9.456,14.481,14.481,0,0,1-3.619,9.795,6.87,6.87,0,0,1-5.082,2.512,10.509,10.509,0,0,1-7.445-3.592c-4.638-4.871-6.995-13.677-6.644-24.823a56.4,56.4,0,0,1,10.168-1.044c8.665.036,13.808,3.184,15.723,9.623l.591,1.977.08-2.061c.136-3.538-.635-6.06-2.429-7.932-2.223-2.314-6.069-3.507-11.439-3.529a69.331,69.331,0,0,0-14.15,1.726l-.266.057-.007.271c-.411,25.009,3.822,34.9,15.094,35.255.174.007.343.009.516.01a11.614,11.614,0,0,0,8.607-3.623c4.488-4.563,5.812-12.011,5.748-14.9v-.113Z" transform="translate(-55.302 -113.035)"/></g></svg>