<svg xmlns="http://www.w3.org/2000/svg" viewBox="0 0 125.39 98.85"><g id="Layer_2" data-name="Layer 2"><g id="Layer_1-2" data-name="Layer 1"><path d="M0,82.25A17.86,17.86,0,0,1,3.07,75a14.85,14.85,0,0,1,17.48-4.64c6,2.52,9.87,9.07,9,15.24-1,7.12-6.19,12.33-13,13.09A14.76,14.76,0,0,1,.22,86.47,2.27,2.27,0,0,0,0,85.93Zm22.13,1.93a7.32,7.32,0,1,0-7.56,7.15A7.28,7.28,0,0,0,22.13,84.18Z"/><path d="M104.2,51a1.55,1.55,0,0,0-.1.31c0,1.14-.42,2.52.08,3.35s1.88,1,2.9,1.41a28.52,28.52,0,0,1,18.31,26.26,4.2,4.2,0,0,1-3.54,4.44A4.1,4.1,0,0,1,117.22,84a9.67,9.67,0,0,1-.34-2.29A19.95,19.95,0,0,0,77.1,80.57c-.07.81-.1,1.63-.18,2.44a4.09,4.09,0,0,1-3.37,3.69,11.56,11.56,0,0,1-2,.14h-30c-4.53,0-5.62-1-6-5.6A19.44,19.44,0,0,0,24.13,64.53a19.43,19.43,0,0,0-13.36-1.3A12.41,12.41,0,0,1,7,63.62,3.47,3.47,0,0,1,3.92,59a9.63,9.63,0,0,1,1.29-2.61Q19.88,34.3,34.58,12.27A4.92,4.92,0,0,1,39,9.87c4.66,0,9.31,0,14,0,2.72,0,4.6,1.8,4.59,4.22s-1.93,4.21-4.71,4.22c-3,0-6,0-8.94,0-.71,0-1.06.15-1.27.91Q37.24,38.67,31.81,58.09a1.18,1.18,0,0,0,.54,1.51,28.86,28.86,0,0,1,6.82,6.95,1.83,1.83,0,0,0,1.25.71c9.1,0,18.21,0,27.31,0a4.58,4.58,0,0,0,.53-.07V51H63.51c-3.58,0-5.15-1.57-5.15-5.14A19,19,0,0,1,58.5,43a4,4,0,0,1,3.43-3.34,10.84,10.84,0,0,1,1.71-.11h49.71a10.71,10.71,0,0,1,1.7.11,4.07,4.07,0,0,1,3.49,3.84c.06,1.1,0,2.21,0,3.31a4.11,4.11,0,0,1-4.2,4.18c-2.94.05-5.88,0-8.82,0Z"/><path d="M96.77,0c0,1.77,0,3.4,0,5,0,1.42.41,1.79,1.83,1.81,3.63.06,3.63.06,3.63-3.55V0h4.4c2.82,0,5.63,0,8.45,0,1.78,0,2.44.67,2.44,2.46q0,13.71,0,27.42c0,1.82-.62,2.45-2.42,2.45H83.89c-1.76,0-2.35-.6-2.36-2.35q0-13.83,0-27.67c0-1.51.57-2.27,1.94-2.29C87.84,0,92.2,0,96.77,0Z"/><path d="M111.74,84A14.8,14.8,0,1,1,97,69.24,14.82,14.82,0,0,1,111.74,84ZM96.85,91.34a7.36,7.36,0,0,0,7.46-7.3A7.34,7.34,0,0,0,89.63,84,7.32,7.32,0,0,0,96.85,91.34Z"/></g></g></svg>