<svg xmlns="http://www.w3.org/2000/svg" viewBox="0 0 130.78 141.72"><g id="Layer_2" data-name="Layer 2"><g id="Layer_1-2" data-name="Layer 1"><path d="M71,36.08c-4.85-1.11-8.87-2.21-13-2.85-1.19-.19-2.73.73-3.88,1.48-4.83,3.15-9.57,6.44-14.35,9.67a28.34,28.34,0,0,1-3,1.89c-3.33,1.7-6.85.87-8.67-2S26.9,38.21,30,36c4.87-3.56,10.29-6.42,14.85-10.3,6.53-5.56,13.42-6.39,21.18-3.6a17.89,17.89,0,0,0,5,1.08c9,.45,15.91,5.51,22.84,10.45a10.3,10.3,0,0,1,3,3.94c2.42,5.08,4.82,10.2,6.87,15.43,1.25,3.18,3.34,4.31,6.54,4.55,4.7.36,9.4.87,14,1.68,1.94.35,4.37,1.19,5.38,2.64s1.51,4.48.71,6c-.89,1.7-3.57,3.61-5.34,3.49a219.61,219.61,0,0,1-24.55-2.83c-2.1-.37-4.28-2.84-5.54-4.89-2.14-3.5-3.59-7.43-5.46-11.48-1,.68-1.66.92-2,1.39-4.27,6.76-8.44,13.58-12.76,20.31-1.34,2.1-.19,3.06,1.34,4.1q8.28,5.64,16.54,11.34c5.43,3.75,6.37,7.08,3.69,13.12q-7.42,16.71-14.91,33.39C79.1,141,75.11,142.89,70.78,141c-4-1.75-5.55-6.1-3.43-11.08Q73,116.74,79.08,103.74c1.37-2.92,1.16-4.6-1.74-6.4-7-4.35-13.77-9.11-20.71-13.57-7.24-4.65-9.25-10.17-4.91-17.66,5.1-8.83,11.1-17.15,16.69-25.7C69.18,39.24,69.85,38,71,36.08Z"/><path d="M43.16,84.26c2.15,2,3.81,3.71,5.56,5.27s3.59,3,5.75,4.79c-2.79,4-5.12,8.16-8.31,11.51-1.66,1.74-4.84,2.73-7.37,2.81-10.21.31-20.43.2-30.65.09-5.26,0-8.17-2.88-8.14-7.5s3.07-7.31,8.33-7.37c7.6-.1,15.2-.22,22.79,0,3.69.13,6.26-.88,8.09-4.14A61,61,0,0,1,43.16,84.26Z"/><path d="M101.6,0a12.17,12.17,0,0,1,12.26,12.57,12.38,12.38,0,1,1-24.75-.23A12.17,12.17,0,0,1,101.6,0Z"/></g></g></svg>