<svg xmlns="http://www.w3.org/2000/svg" width="20" height="20" viewBox="0 0 20 20"><defs><style>.a{fill:#a8a8a8;}</style></defs><path class="a" d="M18.531,4.783l.97-.97a.586.586,0,0,0-.365-1l-1.8-.152-.152-1.8a.586.586,0,0,0-1-.365l-.97.97a10,10,0,0,0-12.288,15.6,10,10,0,0,0,15.6-12.288ZM16.21,3.255a.586.586,0,0,0,.535.535l1.035.087-1.4,1.4L14.85,5.149l-.129-1.528,1.4-1.4ZM11.991,10a1.994,1.994,0,1,1-1.061-1.76L9.585,9.586a.586.586,0,1,0,.829.829l1.346-1.346a1.979,1.979,0,0,1,.232.932Zm-.209-2.612a3.168,3.168,0,1,0,.829.829l1.673-1.673a5.514,5.514,0,1,1-.829-.829Zm4.459,8.854A8.828,8.828,0,1,1,3.757,3.758a8.832,8.832,0,0,1,10.6-1.434l-.661.661a.586.586,0,0,0-.172.4c0,.021,0,.043,0,.064l.079.935A6.685,6.685,0,1,0,15.616,6.39l.935.079.049,0h.032l.038,0,.023,0,.037-.007.023-.006.035-.011.023-.008.034-.015.022-.01.033-.019.02-.012.034-.024.016-.012a.581.581,0,0,0,.046-.041l.661-.661a8.832,8.832,0,0,1-1.434,10.6Zm0,0" transform="translate(0.001 -0.001)"/></svg>