<svg xmlns="http://www.w3.org/2000/svg" viewBox="0 0 130.02 130.02"><g id="Layer_2" data-name="Layer 2"><g id="Layer_1-2" data-name="Layer 1"><path d="M100,37.77c0-7.37-5.09-12.28-12.48-12.36-7.67-.08-15.34,0-23,0-7.4,0-14.8,0-22.19,0-7.78.06-12.9,4.95-13,12.82-.15,14.51-.08,29,0,43.55,0,4.52,1.74,8.42,5.64,10.82a5.4,5.4,0,0,1,2.86,5.75c-.31,3.34.32,6.12,4.58,6.15,3.51,0,5-1.57,4.9-5.9-.08-2.75.66-4,3.64-3.95,9.18.13,18.36.09,27.53,0,2.72,0,4.13.83,3.86,3.8-.31,3.42.6,6.06,4.77,6,3.54,0,4.89-1.7,4.82-6.46,0-2.34.41-4,2.64-5.48a11.74,11.74,0,0,0,5.49-10.42C100,67.35,100.13,52.56,100,37.77ZM42.77,31q22.18,0,44.37,0c2.54,0,5,.89,5,3.71,0,3-2.45,3.9-5.21,3.89-7.39,0-14.79,0-22.18,0s-14.51,0-21.77,0c-2.69,0-5.33-.61-5.44-3.68S40.11,31,42.77,31Zm-1,57.34a5.78,5.78,0,0,1-5.71-5.76A5.87,5.87,0,0,1,41.62,77a5.66,5.66,0,1,1,.19,11.31ZM52.91,87l-.15-1.28c7.88-.68,15.76-.2,23.64-.32V87Zm21.71-3.71c-3.41.06-6.81,0-10.22,0v0c-3,0-6,0-9,0-1.16,0-2.26-.44-2.18-1.87.07-1.2,1.1-1.47,2.09-1.47q9.6,0,19.21,0c1,0,2.06.19,2.19,1.38C76.87,82.8,75.79,83.31,74.62,83.33ZM53.38,76.88a1,1,0,0,1,1.11-.95c7.17.13,14.35-.61,21.5.41.14,0,.23.42.5,1-2.14,1.19-4.45.57-6.62.62-4.89.1-9.78.06-14.67,0C54.46,77.93,53.45,78.05,53.38,76.88ZM46.25,65.94c-7.48-.11-9-2-9-9.38,0-2.6.1-5.21,0-7.8-.22-4.09,1.82-6.2,5.69-6.53,3.4-.3,6.83-.28,10.24-.42,2.29-.09,3.76.6,3.47,3.26-.26,2.38,1,3.11,3.22,3,2.59-.09,5.2-.06,7.8,0,3,.06,6,.4,5.56-4.21-.15-1.67,1.5-2.1,3-2.07,3.28.06,6.58,0,9.83.32,5.19.56,6.3,2,6.31,7.12v4.52c0,1,0,1.91,0,2.87,0,7.32-1.61,9.19-9.07,9.29Q64.73,66.18,46.25,65.94Zm41.8,22.37a5.9,5.9,0,0,1-5.85-5.64,6,6,0,0,1,5.52-5.57,5.61,5.61,0,1,1,.33,11.21Z"/><path d="M65,0a65,65,0,1,0,65,65A65.08,65.08,0,0,0,65,0Zm0,124.26A59.25,59.25,0,1,1,124.26,65,59.32,59.32,0,0,1,65,124.26Z"/></g></g></svg>