<svg xmlns="http://www.w3.org/2000/svg" viewBox="0 0 120 120"><g id="Layer_2" data-name="Layer 2"><g id="Layer_1-2" data-name="Layer 1"><path d="M60,0a60,60,0,1,0,60,60A60.07,60.07,0,0,0,60,0Zm53.48,60A53.48,53.48,0,1,1,60,6.52,53.54,53.54,0,0,1,113.48,60Z"/><path d="M75.85,26.92c-6.86-4.16-14.35-4.26-22-3.43A22.81,22.81,0,0,0,34,41a3.09,3.09,0,0,0,1.61,2.55,59.93,59.93,0,0,0,7.47,1c1.7.22,2.57-.44,3.24-2.15C48.9,35.84,53.61,32.22,61,32.54c5.92.26,10.18,2.86,12,8S71.85,49,68.45,52s-6.94,6.11-10.26,9.32c-3.09,3-4.35,6.86-4.52,11.1C53.46,78,53.47,78,59.17,78h1.26c4.45,0,4.16-.06,5.14-4.23a16.16,16.16,0,0,1,3.56-7c3.48-3.77,7.62-6.92,11.26-10.55C90.43,46.18,86,33.05,75.85,26.92Z"/><path d="M66.34,90.83c-.13-7.26,1.18-6.46-6.5-6.53h-.31c-6.64,0-5.89-.48-5.84,5.94.05,7.46-1.31,6.63,6.62,6.67C67.67,97,66.2,97.05,66.34,90.83Z"/></g></g></svg>