<svg xmlns="http://www.w3.org/2000/svg" width="86.374" height="120.277" viewBox="0 0 86.374 120.277">
  <path id="Union_1" data-name="Union 1" d="M10.8,119.475c-1.658-.439-3.074-2.867-3.988-4.685-.6-1.209-.161-2.974-.081-4.479.161-2.974-.278-5.177-4.1-5.374-.977,0-2.688-2.106-2.635-3.2.2-6.673.745-13.347,1.318-20,.1-1.174.591-2.777,1.461-3.35,3.746-2.606,4.356-6.664,5.592-10.462,1.255-3.977,2.384-7.99,3.585-11.967,1.766-5.473,4.544-7.569,10.316-7.659H37.62c-.4-.693-.355-1.922-.273-4.1A14.053,14.053,0,0,1,41.4,34.254c2.976-2.875,6.148-5.661,9.2-8.348s5.709-5.661,4.078-10.265S49.221,8.708,43.915,8.475c-6.623-.287-10.844,2.955-13.157,8.832-.6,1.532-1.38,2.123-2.9,1.926a53.794,53.794,0,0,1-6.695-.9,2.768,2.768,0,0,1-1.443-2.284A20.44,20.44,0,0,1,37.507.368c6.856-.743,13.569-.654,19.717,3.072,9.1,5.491,13.067,17.252,4.069,26.245-3.263,3.251-6.973,6.073-10.092,9.45a14.472,14.472,0,0,0-3.191,6.27A13.348,13.348,0,0,1,47.19,48.3h14.14c8.864,0,11.436,2.007,13.837,10.749.968,3.521,1.793,7.094,2.967,10.552,1.013,3.037,1.559,6.27,4.715,8.321,1.156.735,1.936,2.688,2.088,4.219.645,6.27.986,12.585,1.416,18.882.17,2.553-.744,4.192-3.585,4.1-2.43-.063-3.415,1.236-3.335,3.583a14.36,14.36,0,0,0,0,1.514c.9,11.107-3.719,9.584-11.517,9.369-2.491-.062-4.176-1.674-4.123-4.478v-1.137c.081-9.593.7-8.815-8.747-8.815h-27.3c-5.305,0-5.664.368-5.664,5.509,0,6.672-1.624,9.606-6.205,9.607A20.466,20.466,0,0,1,10.8,119.475Zm59.968-32.2A4.551,4.551,0,0,0,75.249,91.5c2.267.152,5.1-2.616,4.831-4.9-.3-2.624-1.792-4.478-4.642-4.649-.1-.007-.19-.01-.284-.01h0C72.723,81.942,70.7,84.246,70.768,87.273ZM5.343,86.485c.8,1.89,2.8,4.29,4.723,4.81,2.644.654,4.087-1.791,4.562-4.362h.018c-.206-2.83-1.524-4.648-4.329-4.971a2.567,2.567,0,0,0-.3-.017C7.743,81.945,4.579,84.675,5.343,86.485ZM14.305,55.25C12.441,60.625,10.72,66,9.277,71.482c-1.147,4.263-.332,5.06,4.24,5.079,9.895.018,19.753,0,29.612,0v-.019c10.119,0,20.228.045,30.346,0,3.827,0,4.562-1.137,3.468-4.648-1.6-5.2-3.146-10.391-4.795-15.532-1.3-4.1-3.737-6.162-8.066-6.2-14.152-.143-28.268-.072-42.464-.072-.1,0-.206-.006-.31-.006A7.331,7.331,0,0,0,14.305,55.25ZM43.629,66.134c-.676,0-1.277,0-1.81,0-5.077.035-4.083.069-4.123-5.978-.044-5.751-.717-5.321,5.234-5.321h.278c.67.006,1.265,0,1.791,0,4.874-.012,3.928-.023,4.034,5.845-.112,4.937.912,5.464-3.445,5.464C45.029,66.152,44.38,66.143,43.629,66.134Z" transform="translate(0)"/>
</svg>
