<svg xmlns="http://www.w3.org/2000/svg" viewBox="0 0 79.74 140.33"><g id="Layer_2" data-name="Layer 2"><g id="Layer_1-2" data-name="Layer 1"><path d="M77.53,66.61,37.38,32.22a6.31,6.31,0,0,0-8.54.29l-27,26.55a6.32,6.32,0,0,0,8.87,9L23.52,55.49c0,.27,0,.53,0,.81V81a11.8,11.8,0,0,0,1,4.8L6.08,131.66a6.32,6.32,0,1,0,11.72,4.71L35.3,92.82a11.64,11.64,0,0,0,2.45-.26l17.19,43.77a6.33,6.33,0,0,0,5.89,4,6.22,6.22,0,0,0,2.3-.44,6.3,6.3,0,0,0,3.57-8.18l-19.64-50c0-.23,0-.45,0-.69V57.17l22.23,19a6.32,6.32,0,0,0,8.21-9.6Z"/><path d="M37.76,28.56A14.28,14.28,0,1,0,23.48,14.28,14.28,14.28,0,0,0,37.76,28.56Z"/></g></g></svg>